<?xml version="1.0" standalone="no"?>
<!DOCTYPE svg PUBLIC "-//W3C//DTD SVG 20010904//EN"
 "http://www.w3.org/TR/2001/REC-SVG-20010904/DTD/svg10.dtd">
<svg version="1.0" xmlns="http://www.w3.org/2000/svg"
 width="559.000000pt" height="446.000000pt" viewBox="0 0 559.000000 446.000000"
 preserveAspectRatio="xMidYMid meet">

<g transform="translate(0.000000,446.000000) scale(0.100000,-0.100000)"
fill="#000000" stroke="none">
<path d="M2005 3518 c-51 -60 -99 -150 -127 -238 -33 -108 -33 -295 1 -395 40
-120 141 -285 174 -285 16 0 97 82 97 98 0 8 -13 31 -29 51 -78 98 -113 202
-113 336 1 110 25 196 81 282 21 33 44 64 50 67 6 4 11 15 11 24 0 19 -78 102
-96 102 -7 0 -29 -19 -49 -42z"/>
<path d="M1419 3334 c-104 -32 -179 -136 -179 -250 0 -134 75 -227 212 -264
41 -11 57 -10 113 6 208 56 272 299 119 448 -42 41 -128 76 -182 75 -20 -1
-58 -7 -83 -15z m142 -161 c37 -22 62 -75 54 -113 -9 -40 -68 -90 -106 -90
-62 0 -119 53 -119 110 0 82 98 136 171 93z"/>
<path d="M1497 1522 l-48 -49 38 -34 c156 -141 401 -201 608 -149 50 12 115
35 145 50 64 32 180 116 180 129 0 12 -91 101 -102 101 -4 0 -29 -16 -55 -37
-65 -49 -133 -79 -225 -97 -96 -20 -111 -20 -205 0 -84 17 -180 61 -231 105
-18 16 -38 29 -45 29 -7 0 -34 -22 -60 -48z"/>
<path d="M1850 1172 c-70 -26 -116 -67 -150 -135 -87 -175 39 -380 235 -380
150 0 269 116 268 264 -2 184 -183 313 -353 251z m120 -142 c5 0 22 -12 39
-26 79 -66 28 -194 -78 -194 -24 0 -42 9 -67 34 -28 28 -34 41 -34 78 0 25 8
52 18 65 20 26 81 54 100 48 8 -3 17 -5 22 -5z"/>
</g>
</svg>
